<svg xmlns="http://www.w3.org/2000/svg" xmlns:xlink="http://www.w3.org/1999/xlink" viewBox="0,0,256,256" width="48px" height="48px" fill-rule="nonzero"><defs><linearGradient x1="23.02" y1="4.362" x2="25.063" y2="18.044" gradientUnits="userSpaceOnUse" id="color-1"><stop offset="0.042" stop-color="#0da6f3"></stop><stop offset="0.85" stop-color="#0461af"></stop></linearGradient><linearGradient x1="21.635" y1="6.417" x2="27.567" y2="58.193" gradientUnits="userSpaceOnUse" id="color-2"><stop offset="0" stop-color="#9fdfff"></stop><stop offset="1" stop-color="#0a85d9"></stop></linearGradient></defs><g fill="none" fill-rule="nonzero" stroke="none" stroke-width="1" stroke-linecap="butt" stroke-linejoin="miter" stroke-miterlimit="10" stroke-dasharray="" stroke-dashoffset="0" font-family="none" font-weight="none" font-size="none" text-anchor="none" style="mix-blend-mode: normal"><g transform="scale(5.33333,5.33333)"><path d="M42,14h-36v-6c0,-1.105 0.895,-2 2,-2h32c1.105,0 2,0.895 2,2z" fill="url(#color-1)"></path><path d="M6,14v26c0,1.105 0.895,2 2,2h32c1.105,0 2,-0.895 2,-2v-26z" fill="url(#color-2)"></path><path d="M21,23h-2c-0.552,0 -1,-0.448 -1,-1v-2c0,-0.552 0.448,-1 1,-1h2c0.552,0 1,0.448 1,1v2c0,0.552 -0.448,1 -1,1z" fill="#ffffff"></path><path d="M29,23h-2c-0.552,0 -1,-0.448 -1,-1v-2c0,-0.552 0.448,-1 1,-1h2c0.552,0 1,0.448 1,1v2c0,0.552 -0.448,1 -1,1z" fill="#ffffff"></path><path d="M37,23h-2c-0.552,0 -1,-0.448 -1,-1v-2c0,-0.552 0.448,-1 1,-1h2c0.552,0 1,0.448 1,1v2c0,0.552 -0.448,1 -1,1z" fill="#ffffff"></path><path d="M21,30h-2c-0.552,0 -1,-0.448 -1,-1v-2c0,-0.552 0.448,-1 1,-1h2c0.552,0 1,0.448 1,1v2c0,0.552 -0.448,1 -1,1z" fill="#ffffff"></path><path d="M13,30h-2c-0.552,0 -1,-0.448 -1,-1v-2c0,-0.552 0.448,-1 1,-1h2c0.552,0 1,0.448 1,1v2c0,0.552 -0.448,1 -1,1z" fill="#ffffff"></path><path d="M29,30h-2c-0.552,0 -1,-0.448 -1,-1v-2c0,-0.552 0.448,-1 1,-1h2c0.552,0 1,0.448 1,1v2c0,0.552 -0.448,1 -1,1z" fill="#ffffff"></path><path d="M21,37h-2c-0.552,0 -1,-0.448 -1,-1v-2c0,-0.552 0.448,-1 1,-1h2c0.552,0 1,0.448 1,1v2c0,0.552 -0.448,1 -1,1z" fill="#ffffff"></path><path d="M13,37h-2c-0.552,0 -1,-0.448 -1,-1v-2c0,-0.552 0.448,-1 1,-1h2c0.552,0 1,0.448 1,1v2c0,0.552 -0.448,1 -1,1z" fill="#ffffff"></path><path d="M29,37h-2c-0.552,0 -1,-0.448 -1,-1v-2c0,-0.552 0.448,-1 1,-1h2c0.552,0 1,0.448 1,1v2c0,0.552 -0.448,1 -1,1z" fill="#ffffff"></path><path d="M37,30h-2c-0.552,0 -1,-0.448 -1,-1v-2c0,-0.552 0.448,-1 1,-1h2c0.552,0 1,0.448 1,1v2c0,0.552 -0.448,1 -1,1z" fill="#ffffff"></path><path d="M14,6v3.5c0,0.276 -0.225,0.5 -0.5,0.5c-0.275,0 -0.5,-0.224 -0.5,-0.5v-3.5h-2v3.5c0,1.378 1.121,2.5 2.5,2.5c1.379,0 2.5,-1.122 2.5,-2.5v-3.5z" fill="#000000" opacity="0.05"></path><path d="M14.5,6v3.5c0,0.551 -0.448,1 -1,1c-0.552,0 -1,-0.449 -1,-1v-3.5h-1v3.5c0,1.103 0.897,2 2,2c1.103,0 2,-0.897 2,-2v-3.5z" fill="#000000" opacity="0.07"></path><path d="M35,6v3.5c0,0.276 -0.225,0.5 -0.5,0.5c-0.275,0 -0.5,-0.224 -0.5,-0.5v-3.5h-2v3.5c0,1.378 1.121,2.5 2.5,2.5c1.379,0 2.5,-1.122 2.5,-2.5v-3.5z" fill="#000000" opacity="0.05"></path><path d="M35.5,6v3.5c0,0.551 -0.448,1 -1,1c-0.552,0 -1,-0.449 -1,-1v-3.5h-1v3.5c0,1.103 0.897,2 2,2c1.103,0 2,-0.897 2,-2v-3.5z" fill="#000000" opacity="0.07"></path><path d="M34.5,11v0c-0.828,0 -1.5,-0.672 -1.5,-1.5v-5c0,-0.828 0.672,-1.5 1.5,-1.5v0c0.828,0 1.5,0.672 1.5,1.5v5c0,0.828 -0.672,1.5 -1.5,1.5z" fill="#54daff"></path><path d="M13.5,11v0c-0.828,0 -1.5,-0.672 -1.5,-1.5v-5c0,-0.828 0.672,-1.5 1.5,-1.5v0c0.828,0 1.5,0.672 1.5,1.5v5c0,0.828 -0.672,1.5 -1.5,1.5z" fill="#54daff"></path></g></g></svg>